<svg xmlns="http://www.w3.org/2000/svg" viewBox="0 0 400 300" role="img" aria-label="Schéma d'une pompe à chaleur air-eau">
  <defs>
    <linearGradient id="bg" x1="0" y1="0" x2="0" y2="1">
      <stop offset="0%" stop-color="#e0f2fe"/>
      <stop offset="100%" stop-color="#bae6fd"/>
    </linearGradient>
  </defs>
  <rect width="400" height="300" rx="16" fill="url(#bg)"/>
  <g transform="translate(50, 90)">
    <rect width="120" height="120" rx="10" fill="#f8fafc" stroke="#0369a1" stroke-width="3"/>
    <circle cx="60" cy="60" r="35" fill="none" stroke="#0369a1" stroke-width="3"/>
    <circle cx="60" cy="60" r="22" fill="none" stroke="#0ea5e9" stroke-width="3"/>
    <line x1="40" y1="60" x2="80" y2="60" stroke="#0369a1" stroke-width="3"/>
    <line x1="60" y1="40" x2="60" y2="80" stroke="#0369a1" stroke-width="3"/>
  </g>
  <g stroke="#ea580c" stroke-width="4" fill="none" stroke-linecap="round">
    <path d="M180 130 L260 130" marker-end="url(#arrow)"/>
    <path d="M180 170 L260 170" marker-end="url(#arrow)"/>
  </g>
  <defs>
    <marker id="arrow" viewBox="0 0 10 10" refX="8" refY="5" markerWidth="6" markerHeight="6" orient="auto">
      <path d="M0,0 L10,5 L0,10 z" fill="#ea580c"/>
    </marker>
  </defs>
  <g transform="translate(260, 60)">
    <rect width="100" height="180" rx="10" fill="#fff" stroke="#dc2626" stroke-width="3"/>
    <path d="M50 60 Q 65 80 50 100 Q 35 120 50 140" stroke="#dc2626" stroke-width="4" fill="none" stroke-linecap="round"/>
    <text x="50" y="170" text-anchor="middle" font-family="Arial" font-weight="700" font-size="12" fill="#7f1d1d">Chauffage</text>
  </g>
  <text x="200" y="40" text-anchor="middle" font-family="Arial" font-weight="800" font-size="18" fill="#0c4a6e">Pompe à chaleur air-eau</text>
  <text x="200" y="270" text-anchor="middle" font-family="Arial" font-weight="600" font-size="13" fill="#0369a1">SCOP jusqu'à 4,5 · Jusqu'à 75 % d'économies</text>
</svg>
